<svg xmlns="http://www.w3.org/2000/svg" viewBox="44 119 418 257" width="836" height="514" role="img" aria-labelledby="cassette-accessible-title"><title id="cassette-accessible-title">Cassette window</title><defs><clipPath id="cassette-window-clip" clipPathUnits="userSpaceOnUse"><path transform="matrix(1,0,0,-1,393.5693,260.1104)" stroke-width="2" stroke-linecap="round" stroke-linejoin="round" fill="white" stroke="none" d="M0 0C0-3.409-2.765-6.172-6.173-6.172H-277.452C-280.861-6.172-283.625-3.409-283.625 0V51.598C-283.625 55.007-280.861 57.77-277.452 57.77H-6.173C-2.765 57.77 0 55.007 0 51.598V0Z" xmlns="http://www.w3.org/2000/svg"/></clipPath><clipPath id="cassette-title-clip"><rect x="112" y="151" width="279" height="24"/></clipPath></defs><g data-part="window" ><path transform="matrix(1,0,0,-1,393.5693,260.1104)" stroke-width="2" stroke-linecap="round" stroke-linejoin="round" fill="#dce5e1" stroke="none" d="M0 0C0-3.409-2.765-6.172-6.173-6.172H-277.452C-280.861-6.172-283.625-3.409-283.625 0V51.598C-283.625 55.007-280.861 57.77-277.452 57.77H-6.173C-2.765 57.77 0 55.007 0 51.598V0Z" xmlns="http://www.w3.org/2000/svg"/></g></svg>
