<svg xmlns="http://www.w3.org/2000/svg" viewBox="44 119 418 257" width="836" height="514" role="img" aria-labelledby="cassette-accessible-title"><title id="cassette-accessible-title">Cassette linework</title><defs><clipPath id="cassette-window-clip" clipPathUnits="userSpaceOnUse"><path transform="matrix(1,0,0,-1,393.5693,260.1104)" stroke-width="2" stroke-linecap="round" stroke-linejoin="round" fill="white" stroke="none" d="M0 0C0-3.409-2.765-6.172-6.173-6.172H-277.452C-280.861-6.172-283.625-3.409-283.625 0V51.598C-283.625 55.007-280.861 57.77-277.452 57.77H-6.173C-2.765 57.77 0 55.007 0 51.598V0Z" xmlns="http://www.w3.org/2000/svg"/></clipPath><clipPath id="cassette-title-clip"><rect x="112" y="151" width="279" height="24"/></clipPath></defs><g data-part="linework" ><path transform="matrix(1,0,0,-1,453.2383,365.67683)" stroke-width="4" stroke-linecap="round" stroke-linejoin="round" fill="none" stroke="#262523" d="M0 0C0-3.409-2.764-6.173-6.174-6.173H-394.573C-397.982-6.173-400.746-3.409-400.746 0V236.458C-400.746 239.868-397.982 242.631-394.573 242.631H-6.174C-2.764 242.631 0 239.868 0 236.458V0Z" xmlns="http://www.w3.org/2000/svg"/><path transform="matrix(1,0,0,-1,95.9771,132.51902)" stroke-width="2" stroke-linecap="round" stroke-linejoin="round" fill="none" stroke="#262523" d="M0 0C0-2.535-2.054-4.59-4.589-4.59-7.124-4.59-9.18-2.535-9.18 0-9.18 2.535-7.124 4.59-4.589 4.59-2.054 4.59 0 2.535 0 0Z" xmlns="http://www.w3.org/2000/svg"/><path transform="matrix(1,0,0,-1,434.4961,290.6084)" stroke-width="2" stroke-linecap="round" stroke-linejoin="round" fill="none" stroke="#262523" d="M0 0C0-3.436-2.784-6.22-6.219-6.22H-357.161C-360.596-6.22-363.381-3.436-363.381 0V142.587C-363.381 146.022-360.596 148.808-357.161 148.808H-6.219C-2.784 148.808 0 146.022 0 142.587V0Z" xmlns="http://www.w3.org/2000/svg"/><path transform="matrix(1,0,0,-1,68.3984,172.30759)" d="M0 0C0-1.509-1.222-2.731-2.73-2.731H-9.377C-10.885-2.731-12.107-1.509-12.107 0-12.107 1.507-10.885 2.729-9.377 2.729H-2.73C-1.222 2.729 0 1.507 0 0" fill="#262523" xmlns="http://www.w3.org/2000/svg"/><path transform="matrix(1,0,0,-1,68.3984,172.30759)" stroke-width="2" stroke-linecap="round" stroke-linejoin="round" fill="none" stroke="#262523" d="M0 0C0-1.509-1.222-2.731-2.73-2.731H-9.377C-10.885-2.731-12.107-1.509-12.107 0-12.107 1.507-10.885 2.729-9.377 2.729H-2.73C-1.222 2.729 0 1.507 0 0Z" xmlns="http://www.w3.org/2000/svg"/><path transform="matrix(1,0,0,-1,74.8086,334.5771)" stroke-width="2" stroke-linecap="round" stroke-linejoin="round" fill="none" stroke="#262523" d="M0 0C0-2.622-2.125-4.748-4.748-4.748-7.371-4.748-9.496-2.622-9.496 0-9.496 2.623-7.371 4.748-4.748 4.748-2.125 4.748 0 2.623 0 0Z" xmlns="http://www.w3.org/2000/svg"/><path transform="matrix(1,0,0,-1,52.146,286.3828)" stroke-width="2" stroke-linecap="round" stroke-linejoin="round" fill="none" stroke="#262523" d="M0 0-3.798-4.985V-68.136L-.237-70.747" xmlns="http://www.w3.org/2000/svg"/><path transform="matrix(1,0,0,-1,392,370.125)" stroke-width="4" stroke-linecap="round" stroke-linejoin="round" fill="none" stroke="#262523" d="M0 0-11.116 48.309C-12.322 52.259-16.686 55.49-20.816 55.49H-52.971-67.989-126.557-134.189-141.823-181.786-196.803-255.371C-259.5 55.49-263.865 52.259-265.07 48.309L-276.5-.5" xmlns="http://www.w3.org/2000/svg"/><path transform="matrix(1,0,0,-1,263.0723,331.4961)" stroke-width="4" stroke-linecap="round" stroke-linejoin="round" fill="none" stroke="#262523" d="M0 0C0-5.277-4.276-9.556-9.555-9.556-14.833-9.556-19.11-5.277-19.11 0-19.11 5.278-14.833 9.556-9.555 9.556-4.276 9.556 0 5.278 0 0Z" xmlns="http://www.w3.org/2000/svg"/><path transform="matrix(1,0,0,-1,206.9263,360.249)" stroke-width="2" stroke-linecap="round" stroke-linejoin="round" fill="none" stroke="#262523" d="M0 0C0-3.409-2.764-6.173-6.173-6.173H-11.751C-15.161-6.173-17.924-3.409-17.924 0V3.442C-17.924 6.852-15.161 9.614-11.751 9.614H-6.173C-2.764 9.614 0 6.852 0 3.442V0Z" xmlns="http://www.w3.org/2000/svg"/><path transform="matrix(1,0,0,-1,121.0244,347.6348)" stroke-width="4" stroke-linecap="round" stroke-linejoin="round" fill="none" stroke="#262523" d="M0 0H67.107L81.035 6.015H132.493" xmlns="http://www.w3.org/2000/svg"/><path transform="matrix(1,0,0,-1,262.2021,360.1377)" stroke-width="2" stroke-linecap="round" stroke-linejoin="round" fill="none" stroke="#262523" d="M0 0C0-3.234-2.62-5.855-5.854-5.855H-12.82C-16.054-5.855-18.675-3.234-18.675 0-18.675 3.233-16.054 5.855-12.82 5.855H-5.854C-2.62 5.855 0 3.233 0 0Z" xmlns="http://www.w3.org/2000/svg"/><path transform="matrix(1,0,0,-1,73.6436,135.23142)" stroke-width="3" stroke-linecap="round" stroke-linejoin="round" fill="none" stroke="#262523" d="M0 0C0-4.545-3.685-8.229-8.23-8.229-12.776-8.229-16.46-4.545-16.46 0-16.46 4.545-12.776 8.23-8.23 8.23-3.685 8.23 0 4.545 0 0Z" xmlns="http://www.w3.org/2000/svg"/><path transform="matrix(1,0,0,-1,73.6436,360.99513)" stroke-width="3" stroke-linecap="round" stroke-linejoin="round" fill="none" stroke="#262523" d="M0 0C0-4.545-3.685-8.229-8.23-8.229-12.776-8.229-16.46-4.545-16.46 0-16.46 4.545-12.776 8.23-8.23 8.23-3.685 8.23 0 4.545 0 0Z" xmlns="http://www.w3.org/2000/svg"/><path transform="matrix(1,0,0,-1,432.0869,135.23142)" stroke-width="3" stroke-linecap="round" stroke-linejoin="round" fill="none" stroke="#262523" d="M0 0C0-4.545 3.685-8.229 8.23-8.229 12.774-8.229 16.459-4.545 16.459 0 16.459 4.545 12.774 8.23 8.23 8.23 3.685 8.23 0 4.545 0 0Z" xmlns="http://www.w3.org/2000/svg"/><path transform="matrix(1,0,0,-1,432.0869,360.99513)" stroke-width="3" stroke-linecap="round" stroke-linejoin="round" fill="none" stroke="#262523" d="M0 0C0-4.545 3.685-8.229 8.23-8.229 12.774-8.229 16.459-4.545 16.459 0 16.459 4.545 12.774 8.23 8.23 8.23 3.685 8.23 0 4.545 0 0Z" xmlns="http://www.w3.org/2000/svg"/><path transform="matrix(1,0,0,-1,409.752,132.51902)" stroke-width="2" stroke-linecap="round" stroke-linejoin="round" fill="none" stroke="#262523" d="M0 0C0-2.535 2.055-4.59 4.589-4.59 7.125-4.59 9.18-2.535 9.18 0 9.18 2.535 7.125 4.59 4.589 4.59 2.055 4.59 0 2.535 0 0Z" xmlns="http://www.w3.org/2000/svg"/><path transform="matrix(1,0,0,-1,437.3311,172.30759)" d="M0 0C0-1.509 1.223-2.731 2.73-2.731H9.378C10.886-2.731 12.107-1.509 12.107 0 12.107 1.507 10.886 2.729 9.378 2.729H2.73C1.223 2.729 0 1.507 0 0" fill="#262523" xmlns="http://www.w3.org/2000/svg"/><path transform="matrix(1,0,0,-1,437.3311,172.30759)" stroke-width="2" stroke-linecap="round" stroke-linejoin="round" fill="none" stroke="#262523" d="M0 0C0-1.509 1.223-2.731 2.73-2.731H9.378C10.886-2.731 12.107-1.509 12.107 0 12.107 1.507 10.886 2.729 9.378 2.729H2.73C1.223 2.729 0 1.507 0 0Z" xmlns="http://www.w3.org/2000/svg"/><path transform="matrix(1,0,0,-1,430.9209,334.5771)" stroke-width="2" stroke-linecap="round" stroke-linejoin="round" fill="none" stroke="#262523" d="M0 0C0-2.622 2.125-4.748 4.749-4.748 7.371-4.748 9.496-2.622 9.496 0 9.496 2.623 7.371 4.748 4.749 4.748 2.125 4.748 0 2.623 0 0Z" xmlns="http://www.w3.org/2000/svg"/><path transform="matrix(1,0,0,-1,453.499,286.3828)" stroke-width="2" stroke-linecap="round" stroke-linejoin="round" fill="none" stroke="#262523" d="M0 0 3.8-4.985V-68.136L.239-70.747" xmlns="http://www.w3.org/2000/svg"/><path transform="matrix(1,0,0,-1,104.9595,350.48243)" stroke-width="4" stroke-linecap="round" stroke-linejoin="round" fill="none" stroke="#262523" d="M0 0C0-5.9-4.783-10.685-10.683-10.685-16.583-10.685-21.367-5.9-21.367 0-21.367 5.899-16.583 10.683-10.683 10.683-4.783 10.683 0 5.899 0 0Z" xmlns="http://www.w3.org/2000/svg"/><path transform="matrix(1,0,0,-1,111.6069,350.48243)" stroke-width="2" stroke-linecap="round" stroke-linejoin="round" fill="none" stroke="#262523" d="M0 0C0-9.572-7.759-17.332-17.331-17.332-26.902-17.332-34.662-9.572-34.662 0-34.662 9.571-26.902 17.331-17.331 17.331-7.759 17.331 0 9.571 0 0Z" xmlns="http://www.w3.org/2000/svg"/><path transform="matrix(1,0,0,-1,97.6001,350.48243)" stroke-width="2" stroke-linecap="round" stroke-linejoin="round" fill="none" stroke="#262523" d="M0 0C0-1.836-1.488-3.324-3.324-3.324-5.16-3.324-6.648-1.836-6.648 0-6.648 1.835-5.16 3.323-3.324 3.323-1.488 3.323 0 1.835 0 0Z" xmlns="http://www.w3.org/2000/svg"/><path transform="matrix(1,0,0,-1,400.7695,350.48243)" stroke-width="4" stroke-linecap="round" stroke-linejoin="round" fill="none" stroke="#262523" d="M0 0C0-5.9 4.784-10.685 10.684-10.685 16.583-10.685 21.368-5.9 21.368 0 21.368 5.899 16.583 10.683 10.684 10.683 4.784 10.683 0 5.899 0 0Z" xmlns="http://www.w3.org/2000/svg"/><path transform="matrix(1,0,0,-1,394.123,350.48243)" stroke-width="2" stroke-linecap="round" stroke-linejoin="round" fill="none" stroke="#262523" d="M0 0C0-9.572 7.759-17.332 17.33-17.332 26.901-17.332 34.662-9.572 34.662 0 34.662 9.571 26.901 17.331 17.33 17.331 7.759 17.331 0 9.571 0 0Z" xmlns="http://www.w3.org/2000/svg"/><path transform="matrix(1,0,0,-1,408.1299,350.48243)" stroke-width="2" stroke-linecap="round" stroke-linejoin="round" fill="none" stroke="#262523" d="M0 0C0-1.836 1.487-3.324 3.323-3.324 5.159-3.324 6.647-1.836 6.647 0 6.647 1.835 5.159 3.323 3.323 3.323 1.487 3.323 0 1.835 0 0Z" xmlns="http://www.w3.org/2000/svg"/><path transform="matrix(1,0,0,-1,298.8037,360.249)" stroke-width="2" stroke-linecap="round" stroke-linejoin="round" fill="none" stroke="#262523" d="M0 0C0-3.409 2.762-6.173 6.172-6.173H11.752C15.16-6.173 17.924-3.409 17.924 0V3.442C17.924 6.852 15.16 9.614 11.752 9.614H6.172C2.762 9.614 0 6.852 0 3.442V0Z" xmlns="http://www.w3.org/2000/svg"/><path transform="matrix(1,0,0,-1,384.7051,347.6348)" stroke-width="4" stroke-linecap="round" stroke-linejoin="round" fill="none" stroke="#262523" d="M0 0H-67.106L-81.036 6.015H-132.494" xmlns="http://www.w3.org/2000/svg"/><path transform="matrix(1,0,0,-1,258.3457,331.4961)" stroke-width="2" stroke-linecap="round" stroke-linejoin="round" fill="none" stroke="#262523" d="M0 0C0-2.667-2.161-4.829-4.828-4.829-7.496-4.829-9.657-2.667-9.657 0-9.657 2.668-7.496 4.829-4.828 4.829-2.161 4.829 0 2.668 0 0Z" xmlns="http://www.w3.org/2000/svg"/><path transform="matrix(1,0,0,-1,165.6567,361.0088)" stroke-width="2" stroke-linecap="round" stroke-linejoin="round" fill="none" stroke="#262523" d="M0 0C0-4.589-3.72-8.31-8.31-8.31-12.898-8.31-16.619-4.589-16.619 0-16.619 4.589-12.898 8.31-8.31 8.31-3.72 8.31 0 4.589 0 0Z" xmlns="http://www.w3.org/2000/svg"/><path transform="matrix(1,0,0,-1,149.2446,359.1875)" d="M0 0C.831 3.712 4.14 6.488 8.103 6.488 12.008 6.488 15.275 3.79 16.165 .158L21.002 11.236H-5.113L-.207 0Z" fill="#262523" xmlns="http://www.w3.org/2000/svg"/><path transform="matrix(1,0,0,-1,149.2446,359.1875)" stroke-width="2" stroke-linecap="round" stroke-linejoin="round" fill="none" stroke="#262523" d="M0 0C.831 3.712 4.14 6.488 8.103 6.488 12.008 6.488 15.275 3.79 16.165 .158L21.002 11.236H-5.113L-.207 0H0Z" xmlns="http://www.w3.org/2000/svg"/><path transform="matrix(1,0,0,-1,161.4897,361.0088)" stroke-width="2" stroke-linecap="round" stroke-linejoin="round" fill="none" stroke="#262523" d="M0 0C0-2.288-1.854-4.143-4.143-4.143-6.43-4.143-8.285-2.288-8.285 0-8.285 2.288-6.43 4.143-4.143 4.143-1.854 4.143 0 2.288 0 0Z" xmlns="http://www.w3.org/2000/svg"/><path transform="matrix(1,0,0,-1,357.167,361.0088)" stroke-width="2" stroke-linecap="round" stroke-linejoin="round" fill="none" stroke="#262523" d="M0 0C0-4.589-3.72-8.31-8.31-8.31-12.898-8.31-16.618-4.589-16.618 0-16.618 4.589-12.898 8.31-8.31 8.31-3.72 8.31 0 4.589 0 0Z" xmlns="http://www.w3.org/2000/svg"/><path transform="matrix(1,0,0,-1,340.7549,359.1875)" d="M0 0C.831 3.712 4.14 6.488 8.103 6.488 12.009 6.488 15.275 3.79 16.165 .158L21.003 11.236H-5.112L-.206 0Z" fill="#262523" xmlns="http://www.w3.org/2000/svg"/><path transform="matrix(1,0,0,-1,340.7549,359.1875)" stroke-width="2" stroke-linecap="round" stroke-linejoin="round" fill="none" stroke="#262523" d="M0 0C.831 3.712 4.14 6.488 8.103 6.488 12.009 6.488 15.275 3.79 16.165 .158L21.003 11.236H-5.112L-.206 0H0Z" xmlns="http://www.w3.org/2000/svg"/><path transform="matrix(1,0,0,-1,353,361.0088)" stroke-width="2" stroke-linecap="round" stroke-linejoin="round" fill="none" stroke="#262523" d="M0 0C0-2.288-1.854-4.143-4.143-4.143-6.43-4.143-8.285-2.288-8.285 0-8.285 2.288-6.43 4.143-4.143 4.143-1.854 4.143 0 2.288 0 0Z" xmlns="http://www.w3.org/2000/svg"/><path transform="matrix(1,0,0,-1,0,500)" stroke-width="2" stroke-linecap="round" stroke-linejoin="round" fill="none" stroke="#262523" d="M104.92 376.954H77.854999V358.199H104.92Z" xmlns="http://www.w3.org/2000/svg"/><path transform="matrix(1,0,0,-1,62.7505,132.83301)" stroke-width="3" stroke-linecap="round" stroke-linejoin="round" fill="none" stroke="#262523" d="M0 0 5.417-5.417" xmlns="http://www.w3.org/2000/svg"/><path transform="matrix(1,0,0,-1,62.7505,138.25)" stroke-width="3" stroke-linecap="round" stroke-linejoin="round" fill="none" stroke="#262523" d="M0 0 5.417 5.417" xmlns="http://www.w3.org/2000/svg"/><path transform="matrix(1,0,0,-1,62.7505,358.6016)" stroke-width="3" stroke-linecap="round" stroke-linejoin="round" fill="none" stroke="#262523" d="M0 0 5.417-5.418" xmlns="http://www.w3.org/2000/svg"/><path transform="matrix(1,0,0,-1,62.7505,364.0195)" stroke-width="3" stroke-linecap="round" stroke-linejoin="round" fill="none" stroke="#262523" d="M0 0 5.417 5.418" xmlns="http://www.w3.org/2000/svg"/><path transform="matrix(1,0,0,-1,437.8379,132.83301)" stroke-width="3" stroke-linecap="round" stroke-linejoin="round" fill="none" stroke="#262523" d="M0 0 5.416-5.417" xmlns="http://www.w3.org/2000/svg"/><path transform="matrix(1,0,0,-1,437.8379,138.25)" stroke-width="3" stroke-linecap="round" stroke-linejoin="round" fill="none" stroke="#262523" d="M0 0 5.416 5.417" xmlns="http://www.w3.org/2000/svg"/><path transform="matrix(1,0,0,-1,437.8379,358.6016)" stroke-width="3" stroke-linecap="round" stroke-linejoin="round" fill="none" stroke="#262523" d="M0 0 5.416-5.418" xmlns="http://www.w3.org/2000/svg"/><path transform="matrix(1,0,0,-1,437.8379,364.0195)" stroke-width="3" stroke-linecap="round" stroke-linejoin="round" fill="none" stroke="#262523" d="M0 0 5.416 5.418" xmlns="http://www.w3.org/2000/svg"/><path transform="matrix(1,0,0,-1,110,189)" stroke-width="2" stroke-linecap="round" stroke-linejoin="round" fill="none" stroke="#262523" d="M0 0H282" xmlns="http://www.w3.org/2000/svg"/><path transform="matrix(1,0,0,-1,110,176)" stroke-width="2" stroke-linecap="round" stroke-linejoin="round" fill="none" stroke="#262523" d="M0 0H282" xmlns="http://www.w3.org/2000/svg"/><path transform="matrix(1,0,0,-1,323.334,123.0459)" stroke-width="2" stroke-linecap="round" stroke-linejoin="round" fill="none" stroke="#262523" d="M0 0-12-8.667H-48.584-57-129L-141 0" xmlns="http://www.w3.org/2000/svg"/><path transform="matrix(1,0,0,-1,52.6665,187.6665)" stroke-width="2" stroke-linecap="round" stroke-linejoin="round" fill="none" stroke="#262523" d="M0 0H11.333" xmlns="http://www.w3.org/2000/svg"/><path transform="matrix(1,0,0,-1,52.6665,191.6665)" stroke-width="2" stroke-linecap="round" stroke-linejoin="round" fill="none" stroke="#262523" d="M0 0H11.333" xmlns="http://www.w3.org/2000/svg"/><path transform="matrix(1,0,0,-1,52.6665,195.6665)" stroke-width="2" stroke-linecap="round" stroke-linejoin="round" fill="none" stroke="#262523" d="M0 0H11.333" xmlns="http://www.w3.org/2000/svg"/><path transform="matrix(1,0,0,-1,52.6665,199.6665)" stroke-width="2" stroke-linecap="round" stroke-linejoin="round" fill="none" stroke="#262523" d="M0 0H11.333" xmlns="http://www.w3.org/2000/svg"/><path transform="matrix(1,0,0,-1,52.6665,203.6665)" stroke-width="2" stroke-linecap="round" stroke-linejoin="round" fill="none" stroke="#262523" d="M0 0H11.333" xmlns="http://www.w3.org/2000/svg"/><path transform="matrix(1,0,0,-1,52.6665,207.6665)" stroke-width="2" stroke-linecap="round" stroke-linejoin="round" fill="none" stroke="#262523" d="M0 0H11.333" xmlns="http://www.w3.org/2000/svg"/><path transform="matrix(1,0,0,-1,52.6665,211.6665)" stroke-width="2" stroke-linecap="round" stroke-linejoin="round" fill="none" stroke="#262523" d="M0 0H11.333" xmlns="http://www.w3.org/2000/svg"/><path transform="matrix(1,0,0,-1,52.6665,215.6665)" stroke-width="2" stroke-linecap="round" stroke-linejoin="round" fill="none" stroke="#262523" d="M0 0H11.333" xmlns="http://www.w3.org/2000/svg"/><path transform="matrix(1,0,0,-1,52.6665,219.6665)" stroke-width="2" stroke-linecap="round" stroke-linejoin="round" fill="none" stroke="#262523" d="M0 0H11.333" xmlns="http://www.w3.org/2000/svg"/><path transform="matrix(1,0,0,-1,52.6665,223.6665)" stroke-width="2" stroke-linecap="round" stroke-linejoin="round" fill="none" stroke="#262523" d="M0 0H11.333" xmlns="http://www.w3.org/2000/svg"/><path transform="matrix(1,0,0,-1,52.6665,227.6665)" stroke-width="2" stroke-linecap="round" stroke-linejoin="round" fill="none" stroke="#262523" d="M0 0H11.333" xmlns="http://www.w3.org/2000/svg"/><path transform="matrix(1,0,0,-1,52.6665,231.6665)" stroke-width="2" stroke-linecap="round" stroke-linejoin="round" fill="none" stroke="#262523" d="M0 0H11.333" xmlns="http://www.w3.org/2000/svg"/><path transform="matrix(1,0,0,-1,52.6665,235.6665)" stroke-width="2" stroke-linecap="round" stroke-linejoin="round" fill="none" stroke="#262523" d="M0 0H11.333" xmlns="http://www.w3.org/2000/svg"/><path transform="matrix(1,0,0,-1,52.6665,239.6665)" stroke-width="2" stroke-linecap="round" stroke-linejoin="round" fill="none" stroke="#262523" d="M0 0H11.333" xmlns="http://www.w3.org/2000/svg"/><path transform="matrix(1,0,0,-1,52.6665,243.6665)" stroke-width="2" stroke-linecap="round" stroke-linejoin="round" fill="none" stroke="#262523" d="M0 0H11.333" xmlns="http://www.w3.org/2000/svg"/><path transform="matrix(1,0,0,-1,52.6665,247.6665)" stroke-width="2" stroke-linecap="round" stroke-linejoin="round" fill="none" stroke="#262523" d="M0 0H11.333" xmlns="http://www.w3.org/2000/svg"/><path transform="matrix(1,0,0,-1,52.6665,251.666)" stroke-width="2" stroke-linecap="round" stroke-linejoin="round" fill="none" stroke="#262523" d="M0 0H11.333" xmlns="http://www.w3.org/2000/svg"/><path transform="matrix(1,0,0,-1,52.6665,255.666)" stroke-width="2" stroke-linecap="round" stroke-linejoin="round" fill="none" stroke="#262523" d="M0 0H11.333" xmlns="http://www.w3.org/2000/svg"/><path transform="matrix(1,0,0,-1,52.6665,259.66603)" stroke-width="2" stroke-linecap="round" stroke-linejoin="round" fill="none" stroke="#262523" d="M0 0H11.333" xmlns="http://www.w3.org/2000/svg"/><path transform="matrix(1,0,0,-1,52.6665,263.66603)" stroke-width="2" stroke-linecap="round" stroke-linejoin="round" fill="none" stroke="#262523" d="M0 0H11.333" xmlns="http://www.w3.org/2000/svg"/><path transform="matrix(1,0,0,-1,52.6665,267.66603)" stroke-width="2" stroke-linecap="round" stroke-linejoin="round" fill="none" stroke="#262523" d="M0 0H11.333" xmlns="http://www.w3.org/2000/svg"/><path transform="matrix(1,0,0,-1,52.6665,271.66603)" stroke-width="2" stroke-linecap="round" stroke-linejoin="round" fill="none" stroke="#262523" d="M0 0H11.333" xmlns="http://www.w3.org/2000/svg"/><path transform="matrix(1,0,0,-1,441.9043,187.6665)" stroke-width="2" stroke-linecap="round" stroke-linejoin="round" fill="none" stroke="#262523" d="M0 0H11.334" xmlns="http://www.w3.org/2000/svg"/><path transform="matrix(1,0,0,-1,441.9043,191.6665)" stroke-width="2" stroke-linecap="round" stroke-linejoin="round" fill="none" stroke="#262523" d="M0 0H11.334" xmlns="http://www.w3.org/2000/svg"/><path transform="matrix(1,0,0,-1,441.9043,195.6665)" stroke-width="2" stroke-linecap="round" stroke-linejoin="round" fill="none" stroke="#262523" d="M0 0H11.334" xmlns="http://www.w3.org/2000/svg"/><path transform="matrix(1,0,0,-1,441.9043,199.6665)" stroke-width="2" stroke-linecap="round" stroke-linejoin="round" fill="none" stroke="#262523" d="M0 0H11.334" xmlns="http://www.w3.org/2000/svg"/><path transform="matrix(1,0,0,-1,441.9043,203.6665)" stroke-width="2" stroke-linecap="round" stroke-linejoin="round" fill="none" stroke="#262523" d="M0 0H11.334" xmlns="http://www.w3.org/2000/svg"/><path transform="matrix(1,0,0,-1,441.9043,207.6665)" stroke-width="2" stroke-linecap="round" stroke-linejoin="round" fill="none" stroke="#262523" d="M0 0H11.334" xmlns="http://www.w3.org/2000/svg"/><path transform="matrix(1,0,0,-1,441.9043,211.6665)" stroke-width="2" stroke-linecap="round" stroke-linejoin="round" fill="none" stroke="#262523" d="M0 0H11.334" xmlns="http://www.w3.org/2000/svg"/><path transform="matrix(1,0,0,-1,441.9043,215.6665)" stroke-width="2" stroke-linecap="round" stroke-linejoin="round" fill="none" stroke="#262523" d="M0 0H11.334" xmlns="http://www.w3.org/2000/svg"/><path transform="matrix(1,0,0,-1,441.9043,219.6665)" stroke-width="2" stroke-linecap="round" stroke-linejoin="round" fill="none" stroke="#262523" d="M0 0H11.334" xmlns="http://www.w3.org/2000/svg"/><path transform="matrix(1,0,0,-1,441.9043,223.6665)" stroke-width="2" stroke-linecap="round" stroke-linejoin="round" fill="none" stroke="#262523" d="M0 0H11.334" xmlns="http://www.w3.org/2000/svg"/><path transform="matrix(1,0,0,-1,441.9043,227.6665)" stroke-width="2" stroke-linecap="round" stroke-linejoin="round" fill="none" stroke="#262523" d="M0 0H11.334" xmlns="http://www.w3.org/2000/svg"/><path transform="matrix(1,0,0,-1,441.9043,231.6665)" stroke-width="2" stroke-linecap="round" stroke-linejoin="round" fill="none" stroke="#262523" d="M0 0H11.334" xmlns="http://www.w3.org/2000/svg"/><path transform="matrix(1,0,0,-1,441.9043,235.6665)" stroke-width="2" stroke-linecap="round" stroke-linejoin="round" fill="none" stroke="#262523" d="M0 0H11.334" xmlns="http://www.w3.org/2000/svg"/><path transform="matrix(1,0,0,-1,441.9043,239.6665)" stroke-width="2" stroke-linecap="round" stroke-linejoin="round" fill="none" stroke="#262523" d="M0 0H11.334" xmlns="http://www.w3.org/2000/svg"/><path transform="matrix(1,0,0,-1,441.9043,243.6665)" stroke-width="2" stroke-linecap="round" stroke-linejoin="round" fill="none" stroke="#262523" d="M0 0H11.334" xmlns="http://www.w3.org/2000/svg"/><path transform="matrix(1,0,0,-1,441.9043,247.6665)" stroke-width="2" stroke-linecap="round" stroke-linejoin="round" fill="none" stroke="#262523" d="M0 0H11.334" xmlns="http://www.w3.org/2000/svg"/><path transform="matrix(1,0,0,-1,441.9043,251.666)" stroke-width="2" stroke-linecap="round" stroke-linejoin="round" fill="none" stroke="#262523" d="M0 0H11.334" xmlns="http://www.w3.org/2000/svg"/><path transform="matrix(1,0,0,-1,441.9043,255.666)" stroke-width="2" stroke-linecap="round" stroke-linejoin="round" fill="none" stroke="#262523" d="M0 0H11.334" xmlns="http://www.w3.org/2000/svg"/><path transform="matrix(1,0,0,-1,441.9043,259.66603)" stroke-width="2" stroke-linecap="round" stroke-linejoin="round" fill="none" stroke="#262523" d="M0 0H11.334" xmlns="http://www.w3.org/2000/svg"/><path transform="matrix(1,0,0,-1,441.9043,263.66603)" stroke-width="2" stroke-linecap="round" stroke-linejoin="round" fill="none" stroke="#262523" d="M0 0H11.334" xmlns="http://www.w3.org/2000/svg"/><path transform="matrix(1,0,0,-1,441.9043,267.66603)" stroke-width="2" stroke-linecap="round" stroke-linejoin="round" fill="none" stroke="#262523" d="M0 0H11.334" xmlns="http://www.w3.org/2000/svg"/><path transform="matrix(1,0,0,-1,441.9043,271.66603)" stroke-width="2" stroke-linecap="round" stroke-linejoin="round" fill="none" stroke="#262523" d="M0 0H11.334" xmlns="http://www.w3.org/2000/svg"/><path transform="matrix(1,0,0,-1,127.3335,161.33539)" stroke-width="2" stroke-linecap="round" stroke-linejoin="round" fill="none" stroke="#262523" d="M0 0V19.535H-49.999C-53.434 19.535-56.219 16.749-56.219 13.314V0H0Z" xmlns="http://www.w3.org/2000/svg"/><path transform="matrix(1,0,0,-1,71.3335,155.16699)" stroke-width="2" stroke-linecap="round" stroke-linejoin="round" fill="none" stroke="#262523" d="M0 0H55.667" xmlns="http://www.w3.org/2000/svg"/><path transform="matrix(1,0,0,-1,71.3335,148.8335)" stroke-width="2" stroke-linecap="round" stroke-linejoin="round" fill="none" stroke="#262523" d="M0 0H55.667" xmlns="http://www.w3.org/2000/svg"/><path transform="matrix(1,0,0,-1,120.3335,142.1665)" stroke-width="2" stroke-linecap="round" stroke-linejoin="round" fill="none" stroke="#262523" d="M0 0V-18.667" xmlns="http://www.w3.org/2000/svg"/><path transform="matrix(1,0,0,-1,113.8335,142.1665)" stroke-width="2" stroke-linecap="round" stroke-linejoin="round" fill="none" stroke="#262523" d="M0 0V-18.667" xmlns="http://www.w3.org/2000/svg"/><path transform="matrix(1,0,0,-1,107.3335,142.1665)" stroke-width="2" stroke-linecap="round" stroke-linejoin="round" fill="none" stroke="#262523" d="M0 0V-18.667" xmlns="http://www.w3.org/2000/svg"/><path transform="matrix(1,0,0,-1,100.8335,142.1665)" stroke-width="2" stroke-linecap="round" stroke-linejoin="round" fill="none" stroke="#262523" d="M0 0V-18.667" xmlns="http://www.w3.org/2000/svg"/><path transform="matrix(1,0,0,-1,94.3335,142.1665)" stroke-width="2" stroke-linecap="round" stroke-linejoin="round" fill="none" stroke="#262523" d="M0 0V-18.667" xmlns="http://www.w3.org/2000/svg"/><path transform="matrix(1,0,0,-1,87.8335,142.1665)" stroke-width="2" stroke-linecap="round" stroke-linejoin="round" fill="none" stroke="#262523" d="M0 0V-18.667" xmlns="http://www.w3.org/2000/svg"/><path transform="matrix(1,0,0,-1,81.3335,142.1665)" stroke-width="2" stroke-linecap="round" stroke-linejoin="round" fill="none" stroke="#262523" d="M0 0V-18.667" xmlns="http://www.w3.org/2000/svg"/><path transform="matrix(1,0,0,-1,74.8335,142.1665)" stroke-width="2" stroke-linecap="round" stroke-linejoin="round" fill="none" stroke="#262523" d="M0 0V-18.667" xmlns="http://www.w3.org/2000/svg"/><path transform="matrix(1,0,0,-1,378.2773,161.33539)" stroke-width="2" stroke-linecap="round" stroke-linejoin="round" fill="none" stroke="#262523" d="M0 0V19.535H49.998C53.434 19.535 56.219 16.749 56.219 13.314V0H0Z" xmlns="http://www.w3.org/2000/svg"/><path transform="matrix(1,0,0,-1,433.999,155.16699)" stroke-width="2" stroke-linecap="round" stroke-linejoin="round" fill="none" stroke="#262523" d="M0 0H-55.666" xmlns="http://www.w3.org/2000/svg"/><path transform="matrix(1,0,0,-1,433.999,148.8335)" stroke-width="2" stroke-linecap="round" stroke-linejoin="round" fill="none" stroke="#262523" d="M0 0H-55.666" xmlns="http://www.w3.org/2000/svg"/><path transform="matrix(1,0,0,-1,384.999,142.1665)" stroke-width="2" stroke-linecap="round" stroke-linejoin="round" fill="none" stroke="#262523" d="M0 0V-18.667" xmlns="http://www.w3.org/2000/svg"/><path transform="matrix(1,0,0,-1,391.499,142.1665)" stroke-width="2" stroke-linecap="round" stroke-linejoin="round" fill="none" stroke="#262523" d="M0 0V-18.667" xmlns="http://www.w3.org/2000/svg"/><path transform="matrix(1,0,0,-1,397.999,142.1665)" stroke-width="2" stroke-linecap="round" stroke-linejoin="round" fill="none" stroke="#262523" d="M0 0V-18.667" xmlns="http://www.w3.org/2000/svg"/><path transform="matrix(1,0,0,-1,404.499,142.1665)" stroke-width="2" stroke-linecap="round" stroke-linejoin="round" fill="none" stroke="#262523" d="M0 0V-18.667" xmlns="http://www.w3.org/2000/svg"/><path transform="matrix(1,0,0,-1,410.999,142.1665)" stroke-width="2" stroke-linecap="round" stroke-linejoin="round" fill="none" stroke="#262523" d="M0 0V-18.667" xmlns="http://www.w3.org/2000/svg"/><path transform="matrix(1,0,0,-1,417.499,142.1665)" stroke-width="2" stroke-linecap="round" stroke-linejoin="round" fill="none" stroke="#262523" d="M0 0V-18.667" xmlns="http://www.w3.org/2000/svg"/><path transform="matrix(1,0,0,-1,423.999,142.1665)" stroke-width="2" stroke-linecap="round" stroke-linejoin="round" fill="none" stroke="#262523" d="M0 0V-18.667" xmlns="http://www.w3.org/2000/svg"/><path transform="matrix(1,0,0,-1,430.499,142.1665)" stroke-width="2" stroke-linecap="round" stroke-linejoin="round" fill="none" stroke="#262523" d="M0 0V-18.667" xmlns="http://www.w3.org/2000/svg"/><path transform="matrix(1,0,0,-1,378.2773,277.292)" stroke-width="2" stroke-linecap="round" stroke-linejoin="round" fill="none" stroke="#262523" d="M0 0V-19.535H49.998C53.434-19.535 56.219-16.75 56.219-13.314V0H0Z" xmlns="http://www.w3.org/2000/svg"/><path transform="matrix(1,0,0,-1,434.2773,283.46003)" stroke-width="2" stroke-linecap="round" stroke-linejoin="round" fill="none" stroke="#262523" d="M0 0H-55.666" xmlns="http://www.w3.org/2000/svg"/><path transform="matrix(1,0,0,-1,434.2773,289.79389)" stroke-width="2" stroke-linecap="round" stroke-linejoin="round" fill="none" stroke="#262523" d="M0 0H-55.666" xmlns="http://www.w3.org/2000/svg"/><path transform="matrix(1,0,0,-1,385.2773,296.4619)" stroke-width="2" stroke-linecap="round" stroke-linejoin="round" fill="none" stroke="#262523" d="M0 0V18.668" xmlns="http://www.w3.org/2000/svg"/><path transform="matrix(1,0,0,-1,391.7773,296.4619)" stroke-width="2" stroke-linecap="round" stroke-linejoin="round" fill="none" stroke="#262523" d="M0 0V18.668" xmlns="http://www.w3.org/2000/svg"/><path transform="matrix(1,0,0,-1,398.2773,296.4619)" stroke-width="2" stroke-linecap="round" stroke-linejoin="round" fill="none" stroke="#262523" d="M0 0V18.668" xmlns="http://www.w3.org/2000/svg"/><path transform="matrix(1,0,0,-1,404.7773,296.4619)" stroke-width="2" stroke-linecap="round" stroke-linejoin="round" fill="none" stroke="#262523" d="M0 0V18.668" xmlns="http://www.w3.org/2000/svg"/><path transform="matrix(1,0,0,-1,411.2773,296.4619)" stroke-width="2" stroke-linecap="round" stroke-linejoin="round" fill="none" stroke="#262523" d="M0 0V18.668" xmlns="http://www.w3.org/2000/svg"/><path transform="matrix(1,0,0,-1,417.7773,296.4619)" stroke-width="2" stroke-linecap="round" stroke-linejoin="round" fill="none" stroke="#262523" d="M0 0V18.668" xmlns="http://www.w3.org/2000/svg"/><path transform="matrix(1,0,0,-1,424.2773,296.4619)" stroke-width="2" stroke-linecap="round" stroke-linejoin="round" fill="none" stroke="#262523" d="M0 0V18.668" xmlns="http://www.w3.org/2000/svg"/><path transform="matrix(1,0,0,-1,430.7773,296.4619)" stroke-width="2" stroke-linecap="round" stroke-linejoin="round" fill="none" stroke="#262523" d="M0 0V18.668" xmlns="http://www.w3.org/2000/svg"/><path transform="matrix(1,0,0,-1,127.3335,277.293)" stroke-width="2" stroke-linecap="round" stroke-linejoin="round" fill="none" stroke="#262523" d="M0 0V-19.535H-49.998C-53.434-19.535-56.219-16.749-56.219-13.314V0H0Z" xmlns="http://www.w3.org/2000/svg"/><path transform="matrix(1,0,0,-1,71.6118,283.4609)" stroke-width="2" stroke-linecap="round" stroke-linejoin="round" fill="none" stroke="#262523" d="M0 0H55.666" xmlns="http://www.w3.org/2000/svg"/><path transform="matrix(1,0,0,-1,71.6118,289.79493)" stroke-width="2" stroke-linecap="round" stroke-linejoin="round" fill="none" stroke="#262523" d="M0 0H55.666" xmlns="http://www.w3.org/2000/svg"/><path transform="matrix(1,0,0,-1,120.6118,296.4619)" stroke-width="2" stroke-linecap="round" stroke-linejoin="round" fill="none" stroke="#262523" d="M0 0V18.667" xmlns="http://www.w3.org/2000/svg"/><path transform="matrix(1,0,0,-1,114.1118,296.4619)" stroke-width="2" stroke-linecap="round" stroke-linejoin="round" fill="none" stroke="#262523" d="M0 0V18.667" xmlns="http://www.w3.org/2000/svg"/><path transform="matrix(1,0,0,-1,107.6118,296.4619)" stroke-width="2" stroke-linecap="round" stroke-linejoin="round" fill="none" stroke="#262523" d="M0 0V18.667" xmlns="http://www.w3.org/2000/svg"/><path transform="matrix(1,0,0,-1,101.1118,296.4619)" stroke-width="2" stroke-linecap="round" stroke-linejoin="round" fill="none" stroke="#262523" d="M0 0V18.667" xmlns="http://www.w3.org/2000/svg"/><path transform="matrix(1,0,0,-1,94.6118,296.4619)" stroke-width="2" stroke-linecap="round" stroke-linejoin="round" fill="none" stroke="#262523" d="M0 0V18.667" xmlns="http://www.w3.org/2000/svg"/><path transform="matrix(1,0,0,-1,88.1118,296.4619)" stroke-width="2" stroke-linecap="round" stroke-linejoin="round" fill="none" stroke="#262523" d="M0 0V18.667" xmlns="http://www.w3.org/2000/svg"/><path transform="matrix(1,0,0,-1,81.6118,296.4619)" stroke-width="2" stroke-linecap="round" stroke-linejoin="round" fill="none" stroke="#262523" d="M0 0V18.667" xmlns="http://www.w3.org/2000/svg"/><path transform="matrix(1,0,0,-1,75.1118,296.4619)" stroke-width="2" stroke-linecap="round" stroke-linejoin="round" fill="none" stroke="#262523" d="M0 0V18.667" xmlns="http://www.w3.org/2000/svg"/><path transform="matrix(1,0,0,-1,427.873,141.80081)" stroke-width="2" stroke-linecap="round" stroke-linejoin="round" fill="none" stroke="#262523" d="M0 0V18.755H-27.064V0H-4.596 0Z" xmlns="http://www.w3.org/2000/svg"/><path transform="matrix(1,0,0,-1,393.5693,260.1104)" stroke-width="2" stroke-linecap="round" stroke-linejoin="round" fill="none" stroke="#262523" d="M0 0C0-3.409-2.765-6.172-6.173-6.172H-277.452C-280.861-6.172-283.625-3.409-283.625 0V51.598C-283.625 55.007-280.861 57.77-277.452 57.77H-6.173C-2.765 57.77 0 55.007 0 51.598V0Z" xmlns="http://www.w3.org/2000/svg"/></g></svg>
